<?xml version="1.0" encoding="UTF-8"?>
<!DOCTYPE svg PUBLIC "-//W3C//DTD SVG 1.1//EN" "http://www.w3.org/Graphics/SVG/1.1/DTD/svg11.dtd">
<svg version="1.1" xmlns="http://www.w3.org/2000/svg" xmlns:xlink="http://www.w3.org/1999/xlink" x="0" y="0" width="100" height="100" viewBox="95 146 380 380">
  <defs>
    <linearGradient id="Gradient_1" gradientUnits="userSpaceOnUse" x1="150" y1="200" x2="420" y2="450">
      <stop offset="0" stop-color="#8B5CF6"/>
      <stop offset="1" stop-color="#4F46E5"/>
    </linearGradient>
    <clipPath id="ptt_clip_barline_a">
      <path d="M 0.589844 0.378906 L 6.824219 0.378906 L 6.824219 78.550781 L 0.589844 78.550781 Z" clip-rule="nonzero"/>
    </clipPath>
    <clipPath id="ptt_clip_barline_b">
      <rect x="0" width="7" y="0" height="79"/>
    </clipPath>
    <clipPath id="ptt_clip_lbracket">
      <rect x="0" width="100" y="0" height="468"/>
    </clipPath>
    <clipPath id="ptt_clip_rbracket">
      <rect x="0" width="118" y="0" height="468"/>
    </clipPath>
    <clipPath id="ptt_clip_clef">
      <path d="M 228.820312 227.5 L 323.988281 227.5 L 323.988281 439.566406 L 228.820312 439.566406 Z" clip-rule="nonzero"/>
    </clipPath>
  </defs>
  <g id="partitura_icon">
    <!-- Staff lines -->
    <path stroke-linecap="round" transform="matrix(0.749351, -0.000239428, 0.000239428, 0.749351, 158.458489, 284.450143)" fill="none" stroke-linejoin="miter" d="M 1.498874 1.500545 L 328.474468 1.500761" stroke="url(#Gradient_1)" stroke-width="3" stroke-opacity="1" stroke-miterlimit="4"/>
    <path stroke-linecap="round" transform="matrix(0.749351, 0, 0, 0.749351, 158.458839, 302.98953)" fill="none" stroke-linejoin="miter" d="M 1.498887 1.499633 L 357.186798 1.499633" stroke="url(#Gradient_1)" stroke-width="3" stroke-opacity="1" stroke-miterlimit="4"/>
    <path stroke-linecap="butt" transform="matrix(0.749339, -0.00420515, 0.00420515, 0.749339, 158.452547, 322.703993)" fill="none" stroke-linejoin="miter" d="M -0.00243382 1.500151 L 376.824274 1.498385" stroke="url(#Gradient_1)" stroke-width="3" stroke-opacity="1" stroke-miterlimit="4"/>
    <path stroke-linecap="butt" transform="matrix(0.749351, 0.000000000000000238, -0.000000000000000238, 0.749351, 158.458839, 342.781015)" fill="none" stroke-linejoin="miter" d="M -0.00241214 1.501613 L 358.688097 1.501613" stroke="url(#Gradient_1)" stroke-width="3" stroke-opacity="1" stroke-miterlimit="4"/>
    <path stroke-linecap="butt" transform="matrix(0.749351, -0.000241428, 0.000241428, 0.749351, 158.458474, 362.755789)" fill="none" stroke-linejoin="miter" d="M -0.00240863 1.498785 L 327.244253 1.499961" stroke="url(#Gradient_1)" stroke-width="3" stroke-opacity="1" stroke-miterlimit="4"/>
    <!-- Vertical barline -->
    <path stroke-linecap="butt" transform="matrix(0, 0.749351, -0.749351, 0, 160.69795, 284.861526)" fill="none" stroke-linejoin="miter" d="M 0.00234288 1.499606 L 104.498992 1.499606" stroke="url(#Gradient_1)" stroke-width="3" stroke-opacity="1" stroke-miterlimit="4"/>
    <!-- Thick barline accent -->
    <g opacity="0.9">
      <g transform="matrix(1, 0, 0, 1, 150, 282)">
        <g clip-path="url(#ptt_clip_barline_b)">
          <g clip-path="url(#ptt_clip_barline_a)">
            <path stroke-linecap="butt" transform="matrix(0, 0.749351, -0.749351, 0, 6.778917, 3.577243)" fill="none" stroke-linejoin="miter" d="M 0.00117669 4.00035 L 95.708973 4.00035" stroke="url(#Gradient_1)" stroke-width="8" stroke-opacity="1" stroke-miterlimit="4"/>
          </g>
        </g>
      </g>
    </g>
    <!-- Left bracket < -->
    <g transform="matrix(1, 0, 0, 1, 101, 76)">
      <g clip-path="url(#ptt_clip_lbracket)">
        <g fill="url(#Gradient_1)" fill-opacity="1">
          <g transform="translate(1.606486, 369.37692)">
            <path d="M 23.65625 -122.203125 L 93.875 -55.46875 C 95.6875 -53.65625 96.59375 -51.847656 96.59375 -50.046875 C 96.59375 -48.234375 95.945312 -46.679688 94.65625 -45.390625 C 93.363281 -44.097656 91.679688 -43.453125 89.609375 -43.453125 C 87.796875 -43.453125 86.113281 -44.226562 84.5625 -45.78125 L 12.40625 -115.59375 C 7.757812 -120 8.019531 -124.785156 13.1875 -129.953125 L 85.34375 -199.390625 C 86.632812 -200.679688 88.054688 -201.328125 89.609375 -201.328125 C 94.265625 -201.328125 96.59375 -199 96.59375 -194.34375 C 96.59375 -193.050781 95.816406 -191.375 94.265625 -189.3125 Z"/>
          </g>
        </g>
      </g>
    </g>
    <!-- Right bracket > -->
    <g transform="matrix(1, 0, 0, 1, 342, 76)">
      <g clip-path="url(#ptt_clip_rbracket)">
        <g fill="url(#Gradient_1)" fill-opacity="1">
          <g transform="translate(1.901101, 369.37692)">
            <path d="M 21.71875 -190.078125 C 20.164062 -192.148438 19.390625 -193.832031 19.390625 -195.125 C 19.390625 -199.78125 21.71875 -202.109375 26.375 -202.109375 C 27.925781 -202.109375 29.347656 -201.460938 30.640625 -200.171875 L 102.796875 -130.734375 C 107.972656 -125.554688 108.234375 -120.769531 103.578125 -116.375 L 31.421875 -46.546875 C 29.867188 -44.992188 28.1875 -44.21875 26.375 -44.21875 C 24.3125 -44.21875 22.628906 -44.863281 21.328125 -46.15625 C 20.035156 -47.457031 19.390625 -49.007812 19.390625 -50.8125 C 19.390625 -52.625 20.296875 -54.4375 22.109375 -56.25 L 91.15625 -122.96875 Z"/>
          </g>
        </g>
      </g>
    </g>
    <!-- Treble clef -->
    <g clip-path="url(#ptt_clip_clef)">
      <path fill="url(#Gradient_1)" d="M 287.257812 305.433594 L 287.257812 295.664062 C 302.464844 292.761719 314.042969 278.816406 314.042969 262.0625 C 314.042969 243.21875 299.402344 227.886719 281.40625 227.886719 C 278.171875 227.886719 275.554688 230.628906 275.554688 234.015625 L 275.554688 284.335938 C 249.308594 287.394531 228.832031 310.757812 228.832031 339.042969 C 228.832031 367.328125 249.308594 390.691406 275.554688 393.75 L 275.554688 410.289062 C 274.824219 410.164062 274.078125 410.085938 273.3125 410.085938 C 265.609375 410.085938 259.367188 416.621094 259.367188 424.6875 C 259.367188 432.753906 265.609375 439.292969 273.3125 439.292969 C 281.011719 439.292969 287.257812 432.753906 287.257812 424.6875 L 287.257812 393.625 C 307.957031 390.625 323.964844 372.019531 323.964844 349.527344 C 323.964844 327.039062 307.960938 308.4375 287.257812 305.433594 Z M 275.554688 304.960938 L 275.554688 305.542969 C 260.394531 308.441406 248.859375 322.34375 248.859375 339.042969 C 248.859375 342.429688 251.480469 345.171875 254.710938 345.171875 C 257.941406 345.171875 260.5625 342.429688 260.5625 339.042969 C 260.5625 329.132812 266.902344 320.746094 275.554688 318.089844 L 275.554688 381.40625 C 255.777344 378.425781 240.535156 360.5625 240.535156 339.042969 C 240.535156 317.523438 255.777344 299.664062 275.554688 296.683594 Z M 302.339844 262.066406 C 302.339844 272.027344 295.960938 280.457031 287.257812 283.117188 L 287.257812 241.015625 C 295.960938 243.671875 302.339844 252.101562 302.339844 262.066406 Z M 287.257812 381.261719 L 287.257812 317.800781 C 301.484375 320.671875 312.261719 333.804688 312.261719 349.53125 C 312.261719 365.253906 301.484375 378.390625 287.257812 381.261719 Z" fill-opacity="1" fill-rule="nonzero"/>
    </g>
  </g>
</svg>
