<?xml version="1.0" encoding="UTF-8"?>
<!DOCTYPE svg PUBLIC "-//W3C//DTD SVG 1.1//EN" "http://www.w3.org/Graphics/SVG/1.1/DTD/svg11.dtd">
<svg version="1.1" xmlns="http://www.w3.org/2000/svg" xmlns:xlink="http://www.w3.org/1999/xlink" x="0" y="0" width="40" height="40" viewBox="0 0 375 375">
  <g id="partitura_letterpress_hcDark">
    <path fill="#FFFFFF" d="M 185.707031 104.527344 C 182.738281 106.222656 182.738281 106.210938 182.738281 130.628906 L 182.738281 153.914062 L 87.132812 153.914062 L 94.875 146.5 C 115.824219 126.453125 115.121094 127.230469 115.121094 124.210938 C 115.121094 122.019531 114.746094 121.140625 113.285156 119.882812 C 110.148438 117.183594 108.046875 117.722656 103.050781 122.5 C 55.664062 167.835938 40.425781 182.714844 39.410156 184.613281 C 37.117188 188.914062 37.855469 190.132812 50.039062 202.140625 C 73.3125 225.078125 102.460938 253.246094 105.046875 255.296875 C 106.53125 256.476562 108.371094 257.441406 109.140625 257.4375 C 111.519531 257.433594 114.65625 255.066406 115.128906 252.921875 C 115.730469 250.183594 114.421875 247.964844 109.445312 243.265625 C 107.140625 241.089844 101.894531 236.117188 97.789062 232.21875 L 90.228125 225.128906 L 147.097656 225.128906 L 148.050781 226.972656 C 150.191406 231.113281 155.449219 237.242188 159.742188 240.601562 C 165.378906 245.011719 170.214844 247.417969 177.101562 249.238281 L 182.410156 250.640625 L 182.785156 264.695312 L 180.617188 264.710938 C 177.464844 264.730469 173.269531 266.863281 171.378906 269.40625 C 167.140625 275.109375 167.347656 281.375 171.945312 286.464844 C 177.644531 292.769531 187.351562 291.355469 191.480469 283.617188 C 192.863281 281.023438 192.96875 279.898438 193.175781 265.636719 L 193.394531 250.421875 L 198.125 249.027344 C 207.132812 246.375 216.558594 238.316406 220.925781 229.539062 L 223.117188 225.128906 L 283.53125 225.128906 L 271.703125 236.835938 C 261.121094 247.3125 259.878906 248.769531 259.882812 250.710938 C 259.894531 254.417969 264.242188 257.578125 267.605469 256.320312 C 269.894531 255.46875 335.164062 192.082031 336.128906 189.773438 C 338.042969 185.191406 338.226562 185.402344 302.375 150.78125 C 284.066406 133.097656 268.394531 118.367188 267.550781 118.042969 C 262.679688 116.179688 258.265625 121.46875 260.621094 126.351562 C 261.023438 127.183594 267.332031 133.652344 274.636719 140.722656 L 287.917969 153.582031 L 268.25 153.757812 C 257.4375 153.851562 239.851562 153.851562 229.171875 153.757812 L 209.757812 153.582031 L 211.40625 151.160156 C 214.949219 145.949219 215.964844 142.25 216.003906 134.460938 C 216.035156 128.4375 215.785156 126.53125 214.527344 123.222656 C 211.679688 115.722656 204.691406 108.492188 197.792969 105.914062 C 193.222656 104.203125 187.4375 103.539062 185.707031 104.527344 M 193.289062 134.097656 C 193.289062 154.761719 192.90625 153.457031 198.019531 150.113281 C 202.960938 146.882812 205.820312 140.964844 205.8125 133.988281 C 205.804688 126.347656 202.199219 120.183594 195.851562 116.945312 L 193.289062 115.640625 Z M 83.28125 157.417969 C 82.039062 158.742188 81.847656 159.699219 81.847656 164.671875 L 81.847656 170.398438 L 152.949219 170.398438 L 154.679688 168.339844 C 157.683594 164.769531 162.453125 161.199219 167.816406 158.5 L 173 155.890625 L 84.71875 155.890625 Z M 206.085938 157.277344 C 204.414062 159.125 200.117188 161.601562 196.351562 162.886719 L 193.289062 163.929688 L 193.289062 170.398438 L 305.039062 170.398438 L 290.578125 155.890625 L 248.960938 155.890625 C 207.496094 155.890625 207.339844 155.894531 206.085938 157.277344 M 78.332031 162.265625 C 77.621094 162.976562 77.832031 212.808594 78.550781 213.921875 C 78.972656 214.566406 79.195312 205.746094 79.203125 188.367188 C 79.207031 173.769531 79.113281 161.824219 78.992188 161.824219 C 78.871094 161.824219 78.574219 162.023438 78.332031 162.265625 M 177.132812 166.046875 C 174.234375 166.96875 168.890625 169.582031 168.890625 170.082031 C 168.890625 170.257812 172.007812 170.398438 175.816406 170.398438 L 182.738281 170.398438 L 182.738281 167.761719 C 182.738281 165.453125 182.554688 165.128906 181.257812 165.167969 C 180.441406 165.191406 178.585938 165.585938 177.132812 166.046875 M 61.789062 177.90625 L 51.292969 187.992188 L 58.492188 194.890625 C 62.453125 198.6875 67.25 203.226562 69.15625 204.980469 L 72.617188 208.164062 L 72.617188 187.964844 C 72.617188 176.851562 72.542969 167.773438 72.453125 167.789062 C 72.363281 167.808594 67.5625 172.359375 61.789062 177.90625 M 81.847656 179.960938 L 81.847656 187.542969 L 143.1875 187.542969 L 145.78125 181.929688 C 147.207031 178.839844 149.003906 175.429688 149.777344 174.34375 L 151.175781 172.375 L 81.847656 172.375 Z M 162.050781 175.722656 C 159.003906 179.109375 155.042969 185.398438 155.042969 186.847656 C 155.042969 187.421875 156.085938 187.519531 158.835938 187.207031 C 162.058594 186.839844 162.871094 186.460938 164.253906 184.6875 C 168.851562 178.785156 173.707031 175.226562 179.773438 173.300781 C 182.199219 172.53125 181.722656 172.460938 173.734375 172.421875 L 165.058594 172.375 Z M 197.246094 173.320312 C 202.679688 174.828125 207.949219 177.917969 212.773438 182.425781 L 217.550781 186.882812 L 231.6875 186.882812 C 239.464844 186.882812 262.808594 186.6875 283.566406 186.445312 L 321.308594 186.007812 L 307.722656 172.375 L 251 172.433594 C 204.410156 172.484375 194.808594 172.640625 197.246094 173.320312 M 179.113281 185.21875 L 176.476562 186.84375 L 179.609375 186.863281 C 182.515625 186.882812 182.738281 186.765625 182.738281 185.234375 C 182.738281 183.191406 182.40625 183.191406 179.113281 185.21875 M 193.289062 185.234375 C 193.289062 186.824219 193.441406 186.882812 197.410156 186.832031 L 201.53125 186.78125 L 198.234375 185.191406 C 194.066406 183.183594 193.289062 183.191406 193.289062 185.234375 M 250.824219 188.695312 C 233.324219 188.792969 219.007812 189.027344 219.007812 189.21875 C 219.007812 189.40625 219.867188 191.265625 220.921875 193.347656 C 221.972656 195.433594 223.175781 198.464844 223.597656 200.089844 C 224.019531 201.710938 224.511719 203.558594 224.695312 204.195312 C 225.011719 205.277344 227.472656 205.34375 264.714844 205.3125 L 304.402344 205.28125 L 313.28125 196.742188 L 322.15625 188.203125 L 302.398438 188.359375 C 291.53125 188.449219 268.324219 188.601562 250.824219 188.695312 M 174.3125 189.289062 C 173.003906 189.839844 170.285156 195.6875 169.867188 198.863281 C 169.660156 200.421875 169.441406 201.980469 169.207031 203.535156 L 168.925781 205.347656 L 182.78125 205.347656 L 182.59375 197.269531 L 182.410156 189.191406 L 178.785156 189.066406 C 176.789062 188.992188 174.777344 189.097656 174.3125 189.289062 M 193.289062 197.105469 L 193.289062 205.347656 L 214.480469 205.347656 L 214.058594 203.863281 C 213.070312 200.386719 209.644531 194.210938 207.265625 191.640625 L 204.703125 188.863281 L 193.289062 188.863281 Z M 81.847656 197.433594 L 81.847656 205.347656 L 141.707031 205.347656 L 142.007812 198.589844 C 142.175781 194.871094 142.539062 191.308594 142.8125 190.675781 C 143.289062 189.585938 141.605469 189.523438 112.582031 189.523438 L 81.847656 189.523438 Z M 153.414062 191.003906 C 152.0625 196.960938 151.777344 198.832031 151.761719 201.886719 L 151.746094 205.347656 L 159.332031 205.347656 L 159.433594 200.566406 C 159.492188 197.9375 159.980469 194.375 160.523438 192.652344 L 161.507812 189.523438 L 157.628906 189.523438 C 154.144531 189.523438 153.714844 189.671875 153.414062 191.003906 M 81.847656 212.082031 C 81.847656 216.78125 81.882812 216.871094 84.625 219.664062 L 87.398438 222.492188 L 145.792969 222.492188 L 144.507812 219.226562 C 143.796875 217.433594 142.863281 214.019531 142.421875 211.644531 L 141.628906 207.324219 L 81.847656 207.324219 Z M 152.40625 208.574219 C 152.40625 210.554688 154.894531 218 156.34375 220.347656 L 157.664062 222.492188 L 182.738281 222.492188 L 182.738281 207.324219 L 167.574219 207.324219 C 153.128906 207.324219 152.40625 207.386719 152.40625 208.574219 M 193.289062 214.894531 L 193.289062 222.492188 L 212.902344 222.492188 L 213.800781 219.359375 C 214.292969 217.636719 214.703125 214.300781 214.710938 211.941406 L 214.722656 207.65625 L 204.007812 207.472656 L 193.289062 207.292969 Z M 224.925781 212.4375 C 224.917969 215.246094 224.652344 218.660156 224.335938 220.019531 L 223.761719 222.492188 L 255.179688 222.460938 L 286.597656 222.433594 L 302.230469 207.324219 L 224.941406 207.324219 Z M 160.277344 226.371094 C 162.550781 230.613281 174.113281 237.972656 179.710938 238.742188 L 182.738281 239.15625 L 182.738281 225.128906 L 171.175781 225.128906 C 160.058594 225.128906 159.640625 225.175781 160.277344 226.371094 M 193.289062 232.054688 C 193.289062 237.15625 193.507812 238.976562 194.113281 238.972656 C 195.285156 238.960938 201.613281 235.949219 203.945312 234.289062 C 206.03125 232.800781 211.09375 226.742188 211.09375 225.730469 C 211.09375 225.398438 207.101562 225.128906 202.191406 225.128906 L 193.289062 225.128906 Z M 193.289062 232.054688" fill-opacity="0.3" fill-rule="evenodd"/>
  </g>
</svg>
